<?xml version="1.0" encoding="utf-8" standalone="no"?>
<!DOCTYPE svg PUBLIC "-//W3C//DTD SVG 1.1//EN"
  "http://www.w3.org/Graphics/SVG/1.1/DTD/svg11.dtd">
<svg xmlns:xlink="http://www.w3.org/1999/xlink" width="864pt" height="432pt" viewBox="0 0 864 432" xmlns="http://www.w3.org/2000/svg" version="1.1">
 <metadata>
  <rdf:RDF xmlns:dc="http://purl.org/dc/elements/1.1/" xmlns:cc="http://creativecommons.org/ns#" xmlns:rdf="http://www.w3.org/1999/02/22-rdf-syntax-ns#">
   <cc:Work>
    <dc:type rdf:resource="http://purl.org/dc/dcmitype/StillImage"/>
    <dc:date>2024-02-01T17:40:42.252922</dc:date>
    <dc:format>image/svg+xml</dc:format>
    <dc:creator>
     <cc:Agent>
      <dc:title>Matplotlib v3.5.1, https://matplotlib.org/</dc:title>
     </cc:Agent>
    </dc:creator>
   </cc:Work>
  </rdf:RDF>
 </metadata>
 <defs>
  <style type="text/css">*{stroke-linejoin: round; stroke-linecap: butt}</style>
 </defs>
 <g id="figure_1">
  <g id="patch_1">
   <path d="M 0 432 
L 864 432 
L 864 0 
L 0 0 
z
" style="fill: #ffffff"/>
  </g>
  <g id="axes_1">
   <g id="patch_2">
    <path d="M 63.835 360.749632 
L 444.4775 360.749632 
L 444.4775 28.96 
L 63.835 28.96 
z
" style="fill: #ffffff"/>
   </g>
   <g id="matplotlib.axis_1">
    <g id="xtick_1">
     <g id="text_1">
      <!-- align-hg38 -->
      <g style="fill: #262626" transform="translate(108.658234 417.686774)rotate(-45)scale(0.11 -0.11)">
       <defs>
        <path id="DejaVuSans-61" d="M 2194 1759 
Q 1497 1759 1228 1600 
Q 959 1441 959 1056 
Q 959 750 1161 570 
Q 1363 391 1709 391 
Q 2188 391 2477 730 
Q 2766 1069 2766 1631 
L 2766 1759 
L 2194 1759 
z
M 3341 1997 
L 3341 0 
L 2766 0 
L 2766 531 
Q 2569 213 2275 61 
Q 1981 -91 1556 -91 
Q 1019 -91 701 211 
Q 384 513 384 1019 
Q 384 1609 779 1909 
Q 1175 2209 1959 2209 
L 2766 2209 
L 2766 2266 
Q 2766 2663 2505 2880 
Q 2244 3097 1772 3097 
Q 1472 3097 1187 3025 
Q 903 2953 641 2809 
L 641 3341 
Q 956 3463 1253 3523 
Q 1550 3584 1831 3584 
Q 2591 3584 2966 3190 
Q 3341 2797 3341 1997 
z
" transform="scale(0.015625)"/>
        <path id="DejaVuSans-6c" d="M 603 4863 
L 1178 4863 
L 1178 0 
L 603 0 
L 603 4863 
z
" transform="scale(0.015625)"/>
        <path id="DejaVuSans-69" d="M 603 3500 
L 1178 3500 
L 1178 0 
L 603 0 
L 603 3500 
z
M 603 4863 
L 1178 4863 
L 1178 4134 
L 603 4134 
L 603 4863 
z
" transform="scale(0.015625)"/>
        <path id="DejaVuSans-67" d="M 2906 1791 
Q 2906 2416 2648 2759 
Q 2391 3103 1925 3103 
Q 1463 3103 1205 2759 
Q 947 2416 947 1791 
Q 947 1169 1205 825 
Q 1463 481 1925 481 
Q 2391 481 2648 825 
Q 2906 1169 2906 1791 
z
M 3481 434 
Q 3481 -459 3084 -895 
Q 2688 -1331 1869 -1331 
Q 1566 -1331 1297 -1286 
Q 1028 -1241 775 -1147 
L 775 -588 
Q 1028 -725 1275 -790 
Q 1522 -856 1778 -856 
Q 2344 -856 2625 -561 
Q 2906 -266 2906 331 
L 2906 616 
Q 2728 306 2450 153 
Q 2172 0 1784 0 
Q 1141 0 747 490 
Q 353 981 353 1791 
Q 353 2603 747 3093 
Q 1141 3584 1784 3584 
Q 2172 3584 2450 3431 
Q 2728 3278 2906 2969 
L 2906 3500 
L 3481 3500 
L 3481 434 
z
" transform="scale(0.015625)"/>
        <path id="DejaVuSans-6e" d="M 3513 2113 
L 3513 0 
L 2938 0 
L 2938 2094 
Q 2938 2591 2744 2837 
Q 2550 3084 2163 3084 
Q 1697 3084 1428 2787 
Q 1159 2491 1159 1978 
L 1159 0 
L 581 0 
L 581 3500 
L 1159 3500 
L 1159 2956 
Q 1366 3272 1645 3428 
Q 1925 3584 2291 3584 
Q 2894 3584 3203 3211 
Q 3513 2838 3513 2113 
z
" transform="scale(0.015625)"/>
        <path id="DejaVuSans-2d" d="M 313 2009 
L 1997 2009 
L 1997 1497 
L 313 1497 
L 313 2009 
z
" transform="scale(0.015625)"/>
        <path id="DejaVuSans-68" d="M 3513 2113 
L 3513 0 
L 2938 0 
L 2938 2094 
Q 2938 2591 2744 2837 
Q 2550 3084 2163 3084 
Q 1697 3084 1428 2787 
Q 1159 2491 1159 1978 
L 1159 0 
L 581 0 
L 581 4863 
L 1159 4863 
L 1159 2956 
Q 1366 3272 1645 3428 
Q 1925 3584 2291 3584 
Q 2894 3584 3203 3211 
Q 3513 2838 3513 2113 
z
" transform="scale(0.015625)"/>
        <path id="DejaVuSans-33" d="M 2597 2516 
Q 3050 2419 3304 2112 
Q 3559 1806 3559 1356 
Q 3559 666 3084 287 
Q 2609 -91 1734 -91 
Q 1441 -91 1130 -33 
Q 819 25 488 141 
L 488 750 
Q 750 597 1062 519 
Q 1375 441 1716 441 
Q 2309 441 2620 675 
Q 2931 909 2931 1356 
Q 2931 1769 2642 2001 
Q 2353 2234 1838 2234 
L 1294 2234 
L 1294 2753 
L 1863 2753 
Q 2328 2753 2575 2939 
Q 2822 3125 2822 3475 
Q 2822 3834 2567 4026 
Q 2313 4219 1838 4219 
Q 1578 4219 1281 4162 
Q 984 4106 628 3988 
L 628 4550 
Q 988 4650 1302 4700 
Q 1616 4750 1894 4750 
Q 2613 4750 3031 4423 
Q 3450 4097 3450 3541 
Q 3450 3153 3228 2886 
Q 3006 2619 2597 2516 
z
" transform="scale(0.015625)"/>
        <path id="DejaVuSans-38" d="M 2034 2216 
Q 1584 2216 1326 1975 
Q 1069 1734 1069 1313 
Q 1069 891 1326 650 
Q 1584 409 2034 409 
Q 2484 409 2743 651 
Q 3003 894 3003 1313 
Q 3003 1734 2745 1975 
Q 2488 2216 2034 2216 
z
M 1403 2484 
Q 997 2584 770 2862 
Q 544 3141 544 3541 
Q 544 4100 942 4425 
Q 1341 4750 2034 4750 
Q 2731 4750 3128 4425 
Q 3525 4100 3525 3541 
Q 3525 3141 3298 2862 
Q 3072 2584 2669 2484 
Q 3125 2378 3379 2068 
Q 3634 1759 3634 1313 
Q 3634 634 3220 271 
Q 2806 -91 2034 -91 
Q 1263 -91 848 271 
Q 434 634 434 1313 
Q 434 1759 690 2068 
Q 947 2378 1403 2484 
z
M 1172 3481 
Q 1172 3119 1398 2916 
Q 1625 2713 2034 2713 
Q 2441 2713 2670 2916 
Q 2900 3119 2900 3481 
Q 2900 3844 2670 4047 
Q 2441 4250 2034 4250 
Q 1625 4250 1398 4047 
Q 1172 3844 1172 3481 
z
" transform="scale(0.015625)"/>
       </defs>
       <use xlink:href="#DejaVuSans-61"/>
       <use xlink:href="#DejaVuSans-6c" x="61.279297"/>
       <use xlink:href="#DejaVuSans-69" x="89.0625"/>
       <use xlink:href="#DejaVuSans-67" x="116.845703"/>
       <use xlink:href="#DejaVuSans-6e" x="180.322266"/>
       <use xlink:href="#DejaVuSans-2d" x="243.701172"/>
       <use xlink:href="#DejaVuSans-68" x="279.785156"/>
       <use xlink:href="#DejaVuSans-67" x="343.164062"/>
       <use xlink:href="#DejaVuSans-33" x="406.640625"/>
       <use xlink:href="#DejaVuSans-38" x="470.263672"/>
      </g>
     </g>
    </g>
    <g id="xtick_2">
     <g id="text_2">
      <!-- align-t2t -->
      <g style="fill: #262626" transform="translate(239.897884 408.969142)rotate(-45)scale(0.11 -0.11)">
       <defs>
        <path id="DejaVuSans-74" d="M 1172 4494 
L 1172 3500 
L 2356 3500 
L 2356 3053 
L 1172 3053 
L 1172 1153 
Q 1172 725 1289 603 
Q 1406 481 1766 481 
L 2356 481 
L 2356 0 
L 1766 0 
Q 1100 0 847 248 
Q 594 497 594 1153 
L 594 3053 
L 172 3053 
L 172 3500 
L 594 3500 
L 594 4494 
L 1172 4494 
z
" transform="scale(0.015625)"/>
        <path id="DejaVuSans-32" d="M 1228 531 
L 3431 531 
L 3431 0 
L 469 0 
L 469 531 
Q 828 903 1448 1529 
Q 2069 2156 2228 2338 
Q 2531 2678 2651 2914 
Q 2772 3150 2772 3378 
Q 2772 3750 2511 3984 
Q 2250 4219 1831 4219 
Q 1534 4219 1204 4116 
Q 875 4013 500 3803 
L 500 4441 
Q 881 4594 1212 4672 
Q 1544 4750 1819 4750 
Q 2544 4750 2975 4387 
Q 3406 4025 3406 3419 
Q 3406 3131 3298 2873 
Q 3191 2616 2906 2266 
Q 2828 2175 2409 1742 
Q 1991 1309 1228 531 
z
" transform="scale(0.015625)"/>
       </defs>
       <use xlink:href="#DejaVuSans-61"/>
       <use xlink:href="#DejaVuSans-6c" x="61.279297"/>
       <use xlink:href="#DejaVuSans-69" x="89.0625"/>
       <use xlink:href="#DejaVuSans-67" x="116.845703"/>
       <use xlink:href="#DejaVuSans-6e" x="180.322266"/>
       <use xlink:href="#DejaVuSans-2d" x="243.701172"/>
       <use xlink:href="#DejaVuSans-74" x="279.785156"/>
       <use xlink:href="#DejaVuSans-32" x="318.994141"/>
       <use xlink:href="#DejaVuSans-74" x="382.617188"/>
      </g>
     </g>
    </g>
    <g id="xtick_3">
     <g id="text_3">
      <!-- index-hprc -->
      <g style="fill: #262626" transform="translate(362.556019 417.414538)rotate(-45)scale(0.11 -0.11)">
       <defs>
        <path id="DejaVuSans-64" d="M 2906 2969 
L 2906 4863 
L 3481 4863 
L 3481 0 
L 2906 0 
L 2906 525 
Q 2725 213 2448 61 
Q 2172 -91 1784 -91 
Q 1150 -91 751 415 
Q 353 922 353 1747 
Q 353 2572 751 3078 
Q 1150 3584 1784 3584 
Q 2172 3584 2448 3432 
Q 2725 3281 2906 2969 
z
M 947 1747 
Q 947 1113 1208 752 
Q 1469 391 1925 391 
Q 2381 391 2643 752 
Q 2906 1113 2906 1747 
Q 2906 2381 2643 2742 
Q 2381 3103 1925 3103 
Q 1469 3103 1208 2742 
Q 947 2381 947 1747 
z
" transform="scale(0.015625)"/>
        <path id="DejaVuSans-65" d="M 3597 1894 
L 3597 1613 
L 953 1613 
Q 991 1019 1311 708 
Q 1631 397 2203 397 
Q 2534 397 2845 478 
Q 3156 559 3463 722 
L 3463 178 
Q 3153 47 2828 -22 
Q 2503 -91 2169 -91 
Q 1331 -91 842 396 
Q 353 884 353 1716 
Q 353 2575 817 3079 
Q 1281 3584 2069 3584 
Q 2775 3584 3186 3129 
Q 3597 2675 3597 1894 
z
M 3022 2063 
Q 3016 2534 2758 2815 
Q 2500 3097 2075 3097 
Q 1594 3097 1305 2825 
Q 1016 2553 972 2059 
L 3022 2063 
z
" transform="scale(0.015625)"/>
        <path id="DejaVuSans-78" d="M 3513 3500 
L 2247 1797 
L 3578 0 
L 2900 0 
L 1881 1375 
L 863 0 
L 184 0 
L 1544 1831 
L 300 3500 
L 978 3500 
L 1906 2253 
L 2834 3500 
L 3513 3500 
z
" transform="scale(0.015625)"/>
        <path id="DejaVuSans-70" d="M 1159 525 
L 1159 -1331 
L 581 -1331 
L 581 3500 
L 1159 3500 
L 1159 2969 
Q 1341 3281 1617 3432 
Q 1894 3584 2278 3584 
Q 2916 3584 3314 3078 
Q 3713 2572 3713 1747 
Q 3713 922 3314 415 
Q 2916 -91 2278 -91 
Q 1894 -91 1617 61 
Q 1341 213 1159 525 
z
M 3116 1747 
Q 3116 2381 2855 2742 
Q 2594 3103 2138 3103 
Q 1681 3103 1420 2742 
Q 1159 2381 1159 1747 
Q 1159 1113 1420 752 
Q 1681 391 2138 391 
Q 2594 391 2855 752 
Q 3116 1113 3116 1747 
z
" transform="scale(0.015625)"/>
        <path id="DejaVuSans-72" d="M 2631 2963 
Q 2534 3019 2420 3045 
Q 2306 3072 2169 3072 
Q 1681 3072 1420 2755 
Q 1159 2438 1159 1844 
L 1159 0 
L 581 0 
L 581 3500 
L 1159 3500 
L 1159 2956 
Q 1341 3275 1631 3429 
Q 1922 3584 2338 3584 
Q 2397 3584 2469 3576 
Q 2541 3569 2628 3553 
L 2631 2963 
z
" transform="scale(0.015625)"/>
        <path id="DejaVuSans-63" d="M 3122 3366 
L 3122 2828 
Q 2878 2963 2633 3030 
Q 2388 3097 2138 3097 
Q 1578 3097 1268 2742 
Q 959 2388 959 1747 
Q 959 1106 1268 751 
Q 1578 397 2138 397 
Q 2388 397 2633 464 
Q 2878 531 3122 666 
L 3122 134 
Q 2881 22 2623 -34 
Q 2366 -91 2075 -91 
Q 1284 -91 818 406 
Q 353 903 353 1747 
Q 353 2603 823 3093 
Q 1294 3584 2113 3584 
Q 2378 3584 2631 3529 
Q 2884 3475 3122 3366 
z
" transform="scale(0.015625)"/>
       </defs>
       <use xlink:href="#DejaVuSans-69"/>
       <use xlink:href="#DejaVuSans-6e" x="27.783203"/>
       <use xlink:href="#DejaVuSans-64" x="91.162109"/>
       <use xlink:href="#DejaVuSans-65" x="154.638672"/>
       <use xlink:href="#DejaVuSans-78" x="214.412109"/>
       <use xlink:href="#DejaVuSans-2d" x="273.591797"/>
       <use xlink:href="#DejaVuSans-68" x="309.675781"/>
       <use xlink:href="#DejaVuSans-70" x="373.054688"/>
       <use xlink:href="#DejaVuSans-72" x="436.53125"/>
       <use xlink:href="#DejaVuSans-63" x="475.394531"/>
      </g>
     </g>
    </g>
   </g>
   <g id="matplotlib.axis_2">
    <g id="ytick_1">
     <g id="line2d_1">
      <path d="M 63.835 344.16015 
L 444.4775 344.16015 
" clip-path="url(#p4ec88fc555)" style="fill: none; stroke: #cccccc; stroke-linecap: round"/>
     </g>
     <g id="text_4">
      <!-- 97.8 -->
      <g style="fill: #262626" transform="translate(29.842813 348.339291)scale(0.11 -0.11)">
       <defs>
        <path id="DejaVuSans-39" d="M 703 97 
L 703 672 
Q 941 559 1184 500 
Q 1428 441 1663 441 
Q 2288 441 2617 861 
Q 2947 1281 2994 2138 
Q 2813 1869 2534 1725 
Q 2256 1581 1919 1581 
Q 1219 1581 811 2004 
Q 403 2428 403 3163 
Q 403 3881 828 4315 
Q 1253 4750 1959 4750 
Q 2769 4750 3195 4129 
Q 3622 3509 3622 2328 
Q 3622 1225 3098 567 
Q 2575 -91 1691 -91 
Q 1453 -91 1209 -44 
Q 966 3 703 97 
z
M 1959 2075 
Q 2384 2075 2632 2365 
Q 2881 2656 2881 3163 
Q 2881 3666 2632 3958 
Q 2384 4250 1959 4250 
Q 1534 4250 1286 3958 
Q 1038 3666 1038 3163 
Q 1038 2656 1286 2365 
Q 1534 2075 1959 2075 
z
" transform="scale(0.015625)"/>
        <path id="DejaVuSans-37" d="M 525 4666 
L 3525 4666 
L 3525 4397 
L 1831 0 
L 1172 0 
L 2766 4134 
L 525 4134 
L 525 4666 
z
" transform="scale(0.015625)"/>
        <path id="DejaVuSans-2e" d="M 684 794 
L 1344 794 
L 1344 0 
L 684 0 
L 684 794 
z
" transform="scale(0.015625)"/>
       </defs>
       <use xlink:href="#DejaVuSans-39"/>
       <use xlink:href="#DejaVuSans-37" x="63.623047"/>
       <use xlink:href="#DejaVuSans-2e" x="127.246094"/>
       <use xlink:href="#DejaVuSans-38" x="159.033203"/>
      </g>
     </g>
    </g>
    <g id="ytick_2">
     <g id="line2d_2">
      <path d="M 63.835 277.802224 
L 444.4775 277.802224 
" clip-path="url(#p4ec88fc555)" style="fill: none; stroke: #cccccc; stroke-linecap: round"/>
     </g>
     <g id="text_5">
      <!-- 98.0 -->
      <g style="fill: #262626" transform="translate(29.842813 281.981365)scale(0.11 -0.11)">
       <defs>
        <path id="DejaVuSans-30" d="M 2034 4250 
Q 1547 4250 1301 3770 
Q 1056 3291 1056 2328 
Q 1056 1369 1301 889 
Q 1547 409 2034 409 
Q 2525 409 2770 889 
Q 3016 1369 3016 2328 
Q 3016 3291 2770 3770 
Q 2525 4250 2034 4250 
z
M 2034 4750 
Q 2819 4750 3233 4129 
Q 3647 3509 3647 2328 
Q 3647 1150 3233 529 
Q 2819 -91 2034 -91 
Q 1250 -91 836 529 
Q 422 1150 422 2328 
Q 422 3509 836 4129 
Q 1250 4750 2034 4750 
z
" transform="scale(0.015625)"/>
       </defs>
       <use xlink:href="#DejaVuSans-39"/>
       <use xlink:href="#DejaVuSans-38" x="63.623047"/>
       <use xlink:href="#DejaVuSans-2e" x="127.246094"/>
       <use xlink:href="#DejaVuSans-30" x="159.033203"/>
      </g>
     </g>
    </g>
    <g id="ytick_3">
     <g id="line2d_3">
      <path d="M 63.835 211.444298 
L 444.4775 211.444298 
" clip-path="url(#p4ec88fc555)" style="fill: none; stroke: #cccccc; stroke-linecap: round"/>
     </g>
     <g id="text_6">
      <!-- 98.2 -->
      <g style="fill: #262626" transform="translate(29.842813 215.623438)scale(0.11 -0.11)">
       <use xlink:href="#DejaVuSans-39"/>
       <use xlink:href="#DejaVuSans-38" x="63.623047"/>
       <use xlink:href="#DejaVuSans-2e" x="127.246094"/>
       <use xlink:href="#DejaVuSans-32" x="159.033203"/>
      </g>
     </g>
    </g>
    <g id="ytick_4">
     <g id="line2d_4">
      <path d="M 63.835 145.086371 
L 444.4775 145.086371 
" clip-path="url(#p4ec88fc555)" style="fill: none; stroke: #cccccc; stroke-linecap: round"/>
     </g>
     <g id="text_7">
      <!-- 98.4 -->
      <g style="fill: #262626" transform="translate(29.842813 149.265512)scale(0.11 -0.11)">
       <defs>
        <path id="DejaVuSans-34" d="M 2419 4116 
L 825 1625 
L 2419 1625 
L 2419 4116 
z
M 2253 4666 
L 3047 4666 
L 3047 1625 
L 3713 1625 
L 3713 1100 
L 3047 1100 
L 3047 0 
L 2419 0 
L 2419 1100 
L 313 1100 
L 313 1709 
L 2253 4666 
z
" transform="scale(0.015625)"/>
       </defs>
       <use xlink:href="#DejaVuSans-39"/>
       <use xlink:href="#DejaVuSans-38" x="63.623047"/>
       <use xlink:href="#DejaVuSans-2e" x="127.246094"/>
       <use xlink:href="#DejaVuSans-34" x="159.033203"/>
      </g>
     </g>
    </g>
    <g id="ytick_5">
     <g id="line2d_5">
      <path d="M 63.835 78.728445 
L 444.4775 78.728445 
" clip-path="url(#p4ec88fc555)" style="fill: none; stroke: #cccccc; stroke-linecap: round"/>
     </g>
     <g id="text_8">
      <!-- 98.6 -->
      <g style="fill: #262626" transform="translate(29.842813 82.907585)scale(0.11 -0.11)">
       <defs>
        <path id="DejaVuSans-36" d="M 2113 2584 
Q 1688 2584 1439 2293 
Q 1191 2003 1191 1497 
Q 1191 994 1439 701 
Q 1688 409 2113 409 
Q 2538 409 2786 701 
Q 3034 994 3034 1497 
Q 3034 2003 2786 2293 
Q 2538 2584 2113 2584 
z
M 3366 4563 
L 3366 3988 
Q 3128 4100 2886 4159 
Q 2644 4219 2406 4219 
Q 1781 4219 1451 3797 
Q 1122 3375 1075 2522 
Q 1259 2794 1537 2939 
Q 1816 3084 2150 3084 
Q 2853 3084 3261 2657 
Q 3669 2231 3669 1497 
Q 3669 778 3244 343 
Q 2819 -91 2113 -91 
Q 1303 -91 875 529 
Q 447 1150 447 2328 
Q 447 3434 972 4092 
Q 1497 4750 2381 4750 
Q 2619 4750 2861 4703 
Q 3103 4656 3366 4563 
z
" transform="scale(0.015625)"/>
       </defs>
       <use xlink:href="#DejaVuSans-39"/>
       <use xlink:href="#DejaVuSans-38" x="63.623047"/>
       <use xlink:href="#DejaVuSans-2e" x="127.246094"/>
       <use xlink:href="#DejaVuSans-36" x="159.033203"/>
      </g>
     </g>
    </g>
    <g id="text_9">
     <!-- Percentage of Fecal Sample Reads Remaining -->
     <g style="fill: #262626" transform="translate(23.347187 331.936066)rotate(-90)scale(0.12 -0.12)">
      <defs>
       <path id="DejaVuSans-50" d="M 1259 4147 
L 1259 2394 
L 2053 2394 
Q 2494 2394 2734 2622 
Q 2975 2850 2975 3272 
Q 2975 3691 2734 3919 
Q 2494 4147 2053 4147 
L 1259 4147 
z
M 628 4666 
L 2053 4666 
Q 2838 4666 3239 4311 
Q 3641 3956 3641 3272 
Q 3641 2581 3239 2228 
Q 2838 1875 2053 1875 
L 1259 1875 
L 1259 0 
L 628 0 
L 628 4666 
z
" transform="scale(0.015625)"/>
       <path id="DejaVuSans-20" transform="scale(0.015625)"/>
       <path id="DejaVuSans-6f" d="M 1959 3097 
Q 1497 3097 1228 2736 
Q 959 2375 959 1747 
Q 959 1119 1226 758 
Q 1494 397 1959 397 
Q 2419 397 2687 759 
Q 2956 1122 2956 1747 
Q 2956 2369 2687 2733 
Q 2419 3097 1959 3097 
z
M 1959 3584 
Q 2709 3584 3137 3096 
Q 3566 2609 3566 1747 
Q 3566 888 3137 398 
Q 2709 -91 1959 -91 
Q 1206 -91 779 398 
Q 353 888 353 1747 
Q 353 2609 779 3096 
Q 1206 3584 1959 3584 
z
" transform="scale(0.015625)"/>
       <path id="DejaVuSans-66" d="M 2375 4863 
L 2375 4384 
L 1825 4384 
Q 1516 4384 1395 4259 
Q 1275 4134 1275 3809 
L 1275 3500 
L 2222 3500 
L 2222 3053 
L 1275 3053 
L 1275 0 
L 697 0 
L 697 3053 
L 147 3053 
L 147 3500 
L 697 3500 
L 697 3744 
Q 697 4328 969 4595 
Q 1241 4863 1831 4863 
L 2375 4863 
z
" transform="scale(0.015625)"/>
       <path id="DejaVuSans-46" d="M 628 4666 
L 3309 4666 
L 3309 4134 
L 1259 4134 
L 1259 2759 
L 3109 2759 
L 3109 2228 
L 1259 2228 
L 1259 0 
L 628 0 
L 628 4666 
z
" transform="scale(0.015625)"/>
       <path id="DejaVuSans-53" d="M 3425 4513 
L 3425 3897 
Q 3066 4069 2747 4153 
Q 2428 4238 2131 4238 
Q 1616 4238 1336 4038 
Q 1056 3838 1056 3469 
Q 1056 3159 1242 3001 
Q 1428 2844 1947 2747 
L 2328 2669 
Q 3034 2534 3370 2195 
Q 3706 1856 3706 1288 
Q 3706 609 3251 259 
Q 2797 -91 1919 -91 
Q 1588 -91 1214 -16 
Q 841 59 441 206 
L 441 856 
Q 825 641 1194 531 
Q 1563 422 1919 422 
Q 2459 422 2753 634 
Q 3047 847 3047 1241 
Q 3047 1584 2836 1778 
Q 2625 1972 2144 2069 
L 1759 2144 
Q 1053 2284 737 2584 
Q 422 2884 422 3419 
Q 422 4038 858 4394 
Q 1294 4750 2059 4750 
Q 2388 4750 2728 4690 
Q 3069 4631 3425 4513 
z
" transform="scale(0.015625)"/>
       <path id="DejaVuSans-6d" d="M 3328 2828 
Q 3544 3216 3844 3400 
Q 4144 3584 4550 3584 
Q 5097 3584 5394 3201 
Q 5691 2819 5691 2113 
L 5691 0 
L 5113 0 
L 5113 2094 
Q 5113 2597 4934 2840 
Q 4756 3084 4391 3084 
Q 3944 3084 3684 2787 
Q 3425 2491 3425 1978 
L 3425 0 
L 2847 0 
L 2847 2094 
Q 2847 2600 2669 2842 
Q 2491 3084 2119 3084 
Q 1678 3084 1418 2786 
Q 1159 2488 1159 1978 
L 1159 0 
L 581 0 
L 581 3500 
L 1159 3500 
L 1159 2956 
Q 1356 3278 1631 3431 
Q 1906 3584 2284 3584 
Q 2666 3584 2933 3390 
Q 3200 3197 3328 2828 
z
" transform="scale(0.015625)"/>
       <path id="DejaVuSans-52" d="M 2841 2188 
Q 3044 2119 3236 1894 
Q 3428 1669 3622 1275 
L 4263 0 
L 3584 0 
L 2988 1197 
Q 2756 1666 2539 1819 
Q 2322 1972 1947 1972 
L 1259 1972 
L 1259 0 
L 628 0 
L 628 4666 
L 2053 4666 
Q 2853 4666 3247 4331 
Q 3641 3997 3641 3322 
Q 3641 2881 3436 2590 
Q 3231 2300 2841 2188 
z
M 1259 4147 
L 1259 2491 
L 2053 2491 
Q 2509 2491 2742 2702 
Q 2975 2913 2975 3322 
Q 2975 3731 2742 3939 
Q 2509 4147 2053 4147 
L 1259 4147 
z
" transform="scale(0.015625)"/>
       <path id="DejaVuSans-73" d="M 2834 3397 
L 2834 2853 
Q 2591 2978 2328 3040 
Q 2066 3103 1784 3103 
Q 1356 3103 1142 2972 
Q 928 2841 928 2578 
Q 928 2378 1081 2264 
Q 1234 2150 1697 2047 
L 1894 2003 
Q 2506 1872 2764 1633 
Q 3022 1394 3022 966 
Q 3022 478 2636 193 
Q 2250 -91 1575 -91 
Q 1294 -91 989 -36 
Q 684 19 347 128 
L 347 722 
Q 666 556 975 473 
Q 1284 391 1588 391 
Q 1994 391 2212 530 
Q 2431 669 2431 922 
Q 2431 1156 2273 1281 
Q 2116 1406 1581 1522 
L 1381 1569 
Q 847 1681 609 1914 
Q 372 2147 372 2553 
Q 372 3047 722 3315 
Q 1072 3584 1716 3584 
Q 2034 3584 2315 3537 
Q 2597 3491 2834 3397 
z
" transform="scale(0.015625)"/>
      </defs>
      <use xlink:href="#DejaVuSans-50"/>
      <use xlink:href="#DejaVuSans-65" x="56.677734"/>
      <use xlink:href="#DejaVuSans-72" x="118.201172"/>
      <use xlink:href="#DejaVuSans-63" x="157.064453"/>
      <use xlink:href="#DejaVuSans-65" x="212.044922"/>
      <use xlink:href="#DejaVuSans-6e" x="273.568359"/>
      <use xlink:href="#DejaVuSans-74" x="336.947266"/>
      <use xlink:href="#DejaVuSans-61" x="376.15625"/>
      <use xlink:href="#DejaVuSans-67" x="437.435547"/>
      <use xlink:href="#DejaVuSans-65" x="500.912109"/>
      <use xlink:href="#DejaVuSans-20" x="562.435547"/>
      <use xlink:href="#DejaVuSans-6f" x="594.222656"/>
      <use xlink:href="#DejaVuSans-66" x="655.404297"/>
      <use xlink:href="#DejaVuSans-20" x="690.609375"/>
      <use xlink:href="#DejaVuSans-46" x="722.396484"/>
      <use xlink:href="#DejaVuSans-65" x="774.416016"/>
      <use xlink:href="#DejaVuSans-63" x="835.939453"/>
      <use xlink:href="#DejaVuSans-61" x="890.919922"/>
      <use xlink:href="#DejaVuSans-6c" x="952.199219"/>
      <use xlink:href="#DejaVuSans-20" x="979.982422"/>
      <use xlink:href="#DejaVuSans-53" x="1011.769531"/>
      <use xlink:href="#DejaVuSans-61" x="1075.246094"/>
      <use xlink:href="#DejaVuSans-6d" x="1136.525391"/>
      <use xlink:href="#DejaVuSans-70" x="1233.9375"/>
      <use xlink:href="#DejaVuSans-6c" x="1297.414062"/>
      <use xlink:href="#DejaVuSans-65" x="1325.197266"/>
      <use xlink:href="#DejaVuSans-20" x="1386.720703"/>
      <use xlink:href="#DejaVuSans-52" x="1418.507812"/>
      <use xlink:href="#DejaVuSans-65" x="1483.490234"/>
      <use xlink:href="#DejaVuSans-61" x="1545.013672"/>
      <use xlink:href="#DejaVuSans-64" x="1606.292969"/>
      <use xlink:href="#DejaVuSans-73" x="1669.769531"/>
      <use xlink:href="#DejaVuSans-20" x="1721.869141"/>
      <use xlink:href="#DejaVuSans-52" x="1753.65625"/>
      <use xlink:href="#DejaVuSans-65" x="1818.638672"/>
      <use xlink:href="#DejaVuSans-6d" x="1880.162109"/>
      <use xlink:href="#DejaVuSans-61" x="1977.574219"/>
      <use xlink:href="#DejaVuSans-69" x="2038.853516"/>
      <use xlink:href="#DejaVuSans-6e" x="2066.636719"/>
      <use xlink:href="#DejaVuSans-69" x="2130.015625"/>
      <use xlink:href="#DejaVuSans-6e" x="2157.798828"/>
      <use xlink:href="#DejaVuSans-67" x="2221.177734"/>
     </g>
    </g>
   </g>
   <g id="patch_3">
    <path d="M 77.53813 294.136315 
L 177.012703 294.136315 
L 177.012703 106.71639 
L 77.53813 106.71639 
L 77.53813 294.136315 
z
" clip-path="url(#p4ec88fc555)" style="fill: #94c9de; stroke: #6f6f6f; stroke-width: 1.5; stroke-linejoin: miter"/>
   </g>
   <g id="patch_4">
    <path d="M 204.418963 294.859723 
L 303.893537 294.859723 
L 303.893537 107.634091 
L 204.418963 107.634091 
L 204.418963 294.859723 
z
" clip-path="url(#p4ec88fc555)" style="fill: #94c9de; stroke: #6f6f6f; stroke-width: 1.5; stroke-linejoin: miter"/>
   </g>
   <g id="patch_5">
    <path d="M 331.299797 297.055472 
L 430.77437 297.055472 
L 430.77437 109.589357 
L 331.299797 109.589357 
L 331.299797 297.055472 
z
" clip-path="url(#p4ec88fc555)" style="fill: #94c9de; stroke: #6f6f6f; stroke-width: 1.5; stroke-linejoin: miter"/>
   </g>
   <g id="patch_6">
    <path d="M 127.275417 32793.18617 
L 127.275417 32793.18617 
L 127.275417 32793.18617 
L 127.275417 32793.18617 
z
" clip-path="url(#p4ec88fc555)" style="fill: #94c9de; stroke: #6f6f6f; stroke-width: 0.75; stroke-linejoin: miter"/>
   </g>
   <g id="PathCollection_1"/>
   <g id="line2d_6">
    <path d="M 127.275417 294.136315 
L 127.275417 310.072185 
" clip-path="url(#p4ec88fc555)" style="fill: none; stroke: #6f6f6f; stroke-width: 1.5; stroke-linecap: round"/>
   </g>
   <g id="line2d_7">
    <path d="M 127.275417 106.71639 
L 127.275417 42.300212 
" clip-path="url(#p4ec88fc555)" style="fill: none; stroke: #6f6f6f; stroke-width: 1.5; stroke-linecap: round"/>
   </g>
   <g id="line2d_8">
    <path d="M 102.406773 310.072185 
L 152.14406 310.072185 
" clip-path="url(#p4ec88fc555)" style="fill: none; stroke: #6f6f6f; stroke-width: 1.5; stroke-linecap: round"/>
   </g>
   <g id="line2d_9">
    <path d="M 102.406773 42.300212 
L 152.14406 42.300212 
" clip-path="url(#p4ec88fc555)" style="fill: none; stroke: #6f6f6f; stroke-width: 1.5; stroke-linecap: round"/>
   </g>
   <g id="line2d_10">
    <defs>
     <path id="m5245c92cc3" d="M -0 3.535534 
L 2.12132 0 
L -0 -3.535534 
L -2.12132 -0 
z
" style="stroke: #6f6f6f; stroke-linejoin: miter"/>
    </defs>
    <g clip-path="url(#p4ec88fc555)">
     <use xlink:href="#m5245c92cc3" x="127.275417" y="757.868863" style="fill: #6f6f6f; stroke: #6f6f6f; stroke-linejoin: miter"/>
    </g>
   </g>
   <g id="line2d_11">
    <path d="M 254.15625 294.859723 
L 254.15625 310.617279 
" clip-path="url(#p4ec88fc555)" style="fill: none; stroke: #6f6f6f; stroke-width: 1.5; stroke-linecap: round"/>
   </g>
   <g id="line2d_12">
    <path d="M 254.15625 107.634091 
L 254.15625 43.044262 
" clip-path="url(#p4ec88fc555)" style="fill: none; stroke: #6f6f6f; stroke-width: 1.5; stroke-linecap: round"/>
   </g>
   <g id="line2d_13">
    <path d="M 229.287607 310.617279 
L 279.024893 310.617279 
" clip-path="url(#p4ec88fc555)" style="fill: none; stroke: #6f6f6f; stroke-width: 1.5; stroke-linecap: round"/>
   </g>
   <g id="line2d_14">
    <path d="M 229.287607 43.044262 
L 279.024893 43.044262 
" clip-path="url(#p4ec88fc555)" style="fill: none; stroke: #6f6f6f; stroke-width: 1.5; stroke-linecap: round"/>
   </g>
   <g id="line2d_15">
    <g clip-path="url(#p4ec88fc555)">
     <use xlink:href="#m5245c92cc3" x="254.15625" y="759.357261" style="fill: #6f6f6f; stroke: #6f6f6f; stroke-linejoin: miter"/>
    </g>
   </g>
   <g id="line2d_16">
    <path d="M 381.037083 297.055472 
L 381.037083 312.722836 
" clip-path="url(#p4ec88fc555)" style="fill: none; stroke: #6f6f6f; stroke-width: 1.5; stroke-linecap: round"/>
   </g>
   <g id="line2d_17">
    <path d="M 381.037083 109.589357 
L 381.037083 51.476839 
" clip-path="url(#p4ec88fc555)" style="fill: none; stroke: #6f6f6f; stroke-width: 1.5; stroke-linecap: round"/>
   </g>
   <g id="line2d_18">
    <path d="M 356.16844 312.722836 
L 405.905727 312.722836 
" clip-path="url(#p4ec88fc555)" style="fill: none; stroke: #6f6f6f; stroke-width: 1.5; stroke-linecap: round"/>
   </g>
   <g id="line2d_19">
    <path d="M 356.16844 51.476839 
L 405.905727 51.476839 
" clip-path="url(#p4ec88fc555)" style="fill: none; stroke: #6f6f6f; stroke-width: 1.5; stroke-linecap: round"/>
   </g>
   <g id="line2d_20">
    <g clip-path="url(#p4ec88fc555)">
     <use xlink:href="#m5245c92cc3" x="381.037083" y="763.053722" style="fill: #6f6f6f; stroke: #6f6f6f; stroke-linejoin: miter"/>
    </g>
   </g>
   <g id="line2d_21">
    <path d="M 77.53813 150.103837 
L 177.012703 150.103837 
" clip-path="url(#p4ec88fc555)" style="fill: none; stroke: #6f6f6f; stroke-width: 1.5; stroke-linecap: round"/>
   </g>
   <g id="line2d_22">
    <path d="M 204.418963 150.573149 
L 303.893537 150.573149 
" clip-path="url(#p4ec88fc555)" style="fill: none; stroke: #6f6f6f; stroke-width: 1.5; stroke-linecap: round"/>
   </g>
   <g id="line2d_23">
    <path d="M 331.299797 153.085763 
L 430.77437 153.085763 
" clip-path="url(#p4ec88fc555)" style="fill: none; stroke: #6f6f6f; stroke-width: 1.5; stroke-linecap: round"/>
   </g>
   <g id="patch_7">
    <path d="M 63.835 360.749632 
L 63.835 28.96 
" style="fill: none; stroke: #cccccc; stroke-width: 1.25; stroke-linejoin: miter; stroke-linecap: square"/>
   </g>
   <g id="patch_8">
    <path d="M 444.4775 360.749632 
L 444.4775 28.96 
" style="fill: none; stroke: #cccccc; stroke-width: 1.25; stroke-linejoin: miter; stroke-linecap: square"/>
   </g>
   <g id="patch_9">
    <path d="M 63.835 360.749632 
L 444.4775 360.749632 
" style="fill: none; stroke: #cccccc; stroke-width: 1.25; stroke-linejoin: miter; stroke-linecap: square"/>
   </g>
   <g id="patch_10">
    <path d="M 63.835 28.96 
L 444.4775 28.96 
" style="fill: none; stroke: #cccccc; stroke-width: 1.25; stroke-linejoin: miter; stroke-linecap: square"/>
   </g>
   <g id="PathCollection_2">
    <defs>
     <path id="C0_0_ab97c89574" d="M 0 2 
C 0.530406 2 1.03916 1.789267 1.414214 1.414214 
C 1.789267 1.03916 2 0.530406 2 -0 
C 2 -0.530406 1.789267 -1.03916 1.414214 -1.414214 
C 1.03916 -1.789267 0.530406 -2 0 -2 
C -0.530406 -2 -1.03916 -1.789267 -1.414214 -1.414214 
C -1.789267 -1.03916 -2 -0.530406 -2 0 
C -2 0.530406 -1.789267 1.03916 -1.414214 1.414214 
C -1.03916 1.789267 -0.530406 2 0 2 
z
"/>
    </defs>
    <g clip-path="url(#p4ec88fc555)">
     <use xlink:href="#C0_0_ab97c89574" x="117.427783" y="145.966717" style="fill: #262626"/>
    </g>
    <g clip-path="url(#p4ec88fc555)">
     <use xlink:href="#C0_0_ab97c89574" x="129.764853" y="96.546915" style="fill: #262626"/>
    </g>
    <g clip-path="url(#p4ec88fc555)">
     <use xlink:href="#C0_0_ab97c89574" x="133.930306" y="154.240958" style="fill: #262626"/>
    </g>
    <g clip-path="url(#p4ec88fc555)">
     <use xlink:href="#C0_0_ab97c89574" x="114.913765" y="757.868863" style="fill: #262626"/>
    </g>
    <g clip-path="url(#p4ec88fc555)">
     <use xlink:href="#C0_0_ab97c89574" x="138.779522" y="137.224814" style="fill: #262626"/>
    </g>
    <g clip-path="url(#p4ec88fc555)">
     <use xlink:href="#C0_0_ab97c89574" x="131.338457" y="42.300212" style="fill: #262626"/>
    </g>
    <g clip-path="url(#p4ec88fc555)">
     <use xlink:href="#C0_0_ab97c89574" x="129.435401" y="310.072185" style="fill: #262626"/>
    </g>
    <g clip-path="url(#p4ec88fc555)">
     <use xlink:href="#C0_0_ab97c89574" x="138.917018" y="297.372819" style="fill: #262626"/>
    </g>
    <g clip-path="url(#p4ec88fc555)">
     <use xlink:href="#C0_0_ab97c89574" x="132.659373" y="94.213376" style="fill: #262626"/>
    </g>
    <g clip-path="url(#p4ec88fc555)">
     <use xlink:href="#C0_0_ab97c89574" x="115.8229" y="284.426802" style="fill: #262626"/>
    </g>
   </g>
   <g id="PathCollection_3">
    <defs>
     <path id="C1_0_820bbd930f" d="M 0 2 
C 0.530406 2 1.03916 1.789267 1.414214 1.414214 
C 1.789267 1.03916 2 0.530406 2 -0 
C 2 -0.530406 1.789267 -1.03916 1.414214 -1.414214 
C 1.03916 -1.789267 0.530406 -2 0 -2 
C -0.530406 -2 -1.03916 -1.789267 -1.414214 -1.414214 
C -1.789267 -1.03916 -2 -0.530406 -2 0 
C -2 0.530406 -1.789267 1.03916 -1.414214 1.414214 
C -1.03916 1.789267 -0.530406 2 0 2 
z
"/>
    </defs>
    <g clip-path="url(#p4ec88fc555)">
     <use xlink:href="#C1_0_820bbd930f" x="254.485658" y="146.653414" style="fill: #262626"/>
    </g>
    <g clip-path="url(#p4ec88fc555)">
     <use xlink:href="#C1_0_820bbd930f" x="265.581198" y="97.094803" style="fill: #262626"/>
    </g>
    <g clip-path="url(#p4ec88fc555)">
     <use xlink:href="#C1_0_820bbd930f" x="247.772868" y="154.492885" style="fill: #262626"/>
    </g>
    <g clip-path="url(#p4ec88fc555)">
     <use xlink:href="#C1_0_820bbd930f" x="257.418726" y="759.357261" style="fill: #262626"/>
    </g>
    <g clip-path="url(#p4ec88fc555)">
     <use xlink:href="#C1_0_820bbd930f" x="262.236016" y="139.251953" style="fill: #262626"/>
    </g>
    <g clip-path="url(#p4ec88fc555)">
     <use xlink:href="#C1_0_820bbd930f" x="242.1165" y="43.044262" style="fill: #262626"/>
    </g>
    <g clip-path="url(#p4ec88fc555)">
     <use xlink:href="#C1_0_820bbd930f" x="254.783205" y="310.617279" style="fill: #262626"/>
    </g>
    <g clip-path="url(#p4ec88fc555)">
     <use xlink:href="#C1_0_820bbd930f" x="250.133783" y="298.215856" style="fill: #262626"/>
    </g>
    <g clip-path="url(#p4ec88fc555)">
     <use xlink:href="#C1_0_820bbd930f" x="244.140657" y="94.777509" style="fill: #262626"/>
    </g>
    <g clip-path="url(#p4ec88fc555)">
     <use xlink:href="#C1_0_820bbd930f" x="252.352946" y="284.791323" style="fill: #262626"/>
    </g>
   </g>
   <g id="PathCollection_4">
    <defs>
     <path id="C2_0_b303c733f9" d="M 0 2 
C 0.530406 2 1.03916 1.789267 1.414214 1.414214 
C 1.789267 1.03916 2 0.530406 2 -0 
C 2 -0.530406 1.789267 -1.03916 1.414214 -1.414214 
C 1.03916 -1.789267 0.530406 -2 0 -2 
C -0.530406 -2 -1.03916 -1.789267 -1.414214 -1.414214 
C -1.789267 -1.03916 -2 -0.530406 -2 0 
C -2 0.530406 -1.789267 1.03916 -1.414214 1.414214 
C -1.03916 1.789267 -0.530406 2 0 2 
z
"/>
    </defs>
    <g clip-path="url(#p4ec88fc555)">
     <use xlink:href="#C2_0_b303c733f9" x="391.920393" y="150.052563" style="fill: #262626"/>
    </g>
    <g clip-path="url(#p4ec88fc555)">
     <use xlink:href="#C2_0_b303c733f9" x="388.825073" y="99.19504" style="fill: #262626"/>
    </g>
    <g clip-path="url(#p4ec88fc555)">
     <use xlink:href="#C2_0_b303c733f9" x="378.97687" y="156.118963" style="fill: #262626"/>
    </g>
    <g clip-path="url(#p4ec88fc555)">
     <use xlink:href="#C2_0_b303c733f9" x="373.574404" y="763.053722" style="fill: #262626"/>
    </g>
    <g clip-path="url(#p4ec88fc555)">
     <use xlink:href="#C2_0_b303c733f9" x="387.985807" y="140.772308" style="fill: #262626"/>
    </g>
    <g clip-path="url(#p4ec88fc555)">
     <use xlink:href="#C2_0_b303c733f9" x="385.358317" y="51.476839" style="fill: #262626"/>
    </g>
    <g clip-path="url(#p4ec88fc555)">
     <use xlink:href="#C2_0_b303c733f9" x="388.5013" y="312.722836" style="fill: #262626"/>
    </g>
    <g clip-path="url(#p4ec88fc555)">
     <use xlink:href="#C2_0_b303c733f9" x="392.554944" y="300.434729" style="fill: #262626"/>
    </g>
    <g clip-path="url(#p4ec88fc555)">
     <use xlink:href="#C2_0_b303c733f9" x="370.397866" y="97.337805" style="fill: #262626"/>
    </g>
    <g clip-path="url(#p4ec88fc555)">
     <use xlink:href="#C2_0_b303c733f9" x="374.036675" y="286.917701" style="fill: #262626"/>
    </g>
   </g>
   <g id="text_10">
    <!-- Method 1 -->
    <g style="fill: #262626" transform="translate(225.928125 22.96)scale(0.12 -0.12)">
     <defs>
      <path id="DejaVuSans-4d" d="M 628 4666 
L 1569 4666 
L 2759 1491 
L 3956 4666 
L 4897 4666 
L 4897 0 
L 4281 0 
L 4281 4097 
L 3078 897 
L 2444 897 
L 1241 4097 
L 1241 0 
L 628 0 
L 628 4666 
z
" transform="scale(0.015625)"/>
      <path id="DejaVuSans-31" d="M 794 531 
L 1825 531 
L 1825 4091 
L 703 3866 
L 703 4441 
L 1819 4666 
L 2450 4666 
L 2450 531 
L 3481 531 
L 3481 0 
L 794 0 
L 794 531 
z
" transform="scale(0.015625)"/>
     </defs>
     <use xlink:href="#DejaVuSans-4d"/>
     <use xlink:href="#DejaVuSans-65" x="86.279297"/>
     <use xlink:href="#DejaVuSans-74" x="147.802734"/>
     <use xlink:href="#DejaVuSans-68" x="187.011719"/>
     <use xlink:href="#DejaVuSans-6f" x="250.390625"/>
     <use xlink:href="#DejaVuSans-64" x="311.572266"/>
     <use xlink:href="#DejaVuSans-20" x="375.048828"/>
     <use xlink:href="#DejaVuSans-31" x="406.835938"/>
    </g>
   </g>
  </g>
  <g id="axes_2">
   <g id="patch_11">
    <path d="M 457.4375 360.749632 
L 711.199167 360.749632 
L 711.199167 28.96 
L 457.4375 28.96 
z
" style="fill: #ffffff"/>
   </g>
   <g id="matplotlib.axis_3">
    <g id="xtick_4">
     <g id="text_11">
      <!-- align-hprc -->
      <g style="fill: #262626" transform="translate(503.559932 415.088378)rotate(-45)scale(0.11 -0.11)">
       <use xlink:href="#DejaVuSans-61"/>
       <use xlink:href="#DejaVuSans-6c" x="61.279297"/>
       <use xlink:href="#DejaVuSans-69" x="89.0625"/>
       <use xlink:href="#DejaVuSans-67" x="116.845703"/>
       <use xlink:href="#DejaVuSans-6e" x="180.322266"/>
       <use xlink:href="#DejaVuSans-2d" x="243.701172"/>
       <use xlink:href="#DejaVuSans-68" x="279.785156"/>
       <use xlink:href="#DejaVuSans-70" x="343.164062"/>
       <use xlink:href="#DejaVuSans-72" x="406.640625"/>
       <use xlink:href="#DejaVuSans-63" x="445.503906"/>
      </g>
     </g>
    </g>
    <g id="xtick_5">
     <g id="text_12">
      <!-- index-hprc -->
      <g style="fill: #262626" transform="translate(629.277686 417.414538)rotate(-45)scale(0.11 -0.11)">
       <use xlink:href="#DejaVuSans-69"/>
       <use xlink:href="#DejaVuSans-6e" x="27.783203"/>
       <use xlink:href="#DejaVuSans-64" x="91.162109"/>
       <use xlink:href="#DejaVuSans-65" x="154.638672"/>
       <use xlink:href="#DejaVuSans-78" x="214.412109"/>
       <use xlink:href="#DejaVuSans-2d" x="273.591797"/>
       <use xlink:href="#DejaVuSans-68" x="309.675781"/>
       <use xlink:href="#DejaVuSans-70" x="373.054688"/>
       <use xlink:href="#DejaVuSans-72" x="436.53125"/>
       <use xlink:href="#DejaVuSans-63" x="475.394531"/>
      </g>
     </g>
    </g>
   </g>
   <g id="matplotlib.axis_4">
    <g id="ytick_6">
     <g id="line2d_24">
      <path d="M 457.4375 344.16015 
L 711.199167 344.16015 
" clip-path="url(#p2830b0c4b5)" style="fill: none; stroke: #cccccc; stroke-linecap: round"/>
     </g>
    </g>
    <g id="ytick_7">
     <g id="line2d_25">
      <path d="M 457.4375 277.802224 
L 711.199167 277.802224 
" clip-path="url(#p2830b0c4b5)" style="fill: none; stroke: #cccccc; stroke-linecap: round"/>
     </g>
    </g>
    <g id="ytick_8">
     <g id="line2d_26">
      <path d="M 457.4375 211.444298 
L 711.199167 211.444298 
" clip-path="url(#p2830b0c4b5)" style="fill: none; stroke: #cccccc; stroke-linecap: round"/>
     </g>
    </g>
    <g id="ytick_9">
     <g id="line2d_27">
      <path d="M 457.4375 145.086371 
L 711.199167 145.086371 
" clip-path="url(#p2830b0c4b5)" style="fill: none; stroke: #cccccc; stroke-linecap: round"/>
     </g>
    </g>
    <g id="ytick_10">
     <g id="line2d_28">
      <path d="M 457.4375 78.728445 
L 711.199167 78.728445 
" clip-path="url(#p2830b0c4b5)" style="fill: none; stroke: #cccccc; stroke-linecap: round"/>
     </g>
    </g>
   </g>
   <g id="patch_12">
    <path d="M 471.14063 328.477491 
L 570.615203 328.477491 
L 570.615203 130.272493 
L 471.14063 130.272493 
L 471.14063 328.477491 
z
" clip-path="url(#p2830b0c4b5)" style="fill: #9ce29c; stroke: #737373; stroke-width: 1.5; stroke-linejoin: miter"/>
   </g>
   <g id="patch_13">
    <path d="M 598.021463 330.073742 
L 697.496037 330.073742 
L 697.496037 131.606435 
L 598.021463 131.606435 
L 598.021463 330.073742 
z
" clip-path="url(#p2830b0c4b5)" style="fill: #9ce29c; stroke: #737373; stroke-width: 1.5; stroke-linejoin: miter"/>
   </g>
   <g id="patch_14">
    <path d="M 520.877917 32793.18617 
L 520.877917 32793.18617 
L 520.877917 32793.18617 
L 520.877917 32793.18617 
z
" clip-path="url(#p2830b0c4b5)" style="fill: #9ce29c; stroke: #737373; stroke-width: 0.75; stroke-linejoin: miter"/>
   </g>
   <g id="PathCollection_5"/>
   <g id="line2d_29">
    <path d="M 520.877917 328.477491 
L 520.877917 334.451758 
" clip-path="url(#p2830b0c4b5)" style="fill: none; stroke: #737373; stroke-width: 1.5; stroke-linecap: round"/>
   </g>
   <g id="line2d_30">
    <path d="M 520.877917 130.272493 
L 520.877917 75.224461 
" clip-path="url(#p2830b0c4b5)" style="fill: none; stroke: #737373; stroke-width: 1.5; stroke-linecap: round"/>
   </g>
   <g id="line2d_31">
    <path d="M 496.009273 334.451758 
L 545.74656 334.451758 
" clip-path="url(#p2830b0c4b5)" style="fill: none; stroke: #737373; stroke-width: 1.5; stroke-linecap: round"/>
   </g>
   <g id="line2d_32">
    <path d="M 496.009273 75.224461 
L 545.74656 75.224461 
" clip-path="url(#p2830b0c4b5)" style="fill: none; stroke: #737373; stroke-width: 1.5; stroke-linecap: round"/>
   </g>
   <g id="line2d_33">
    <defs>
     <path id="m47a6b9965e" d="M -0 3.535534 
L 2.12132 0 
L -0 -3.535534 
L -2.12132 -0 
z
" style="stroke: #737373; stroke-linejoin: miter"/>
    </defs>
    <g clip-path="url(#p2830b0c4b5)">
     <use xlink:href="#m47a6b9965e" x="520.877917" y="783.760449" style="fill: #737373; stroke: #737373; stroke-linejoin: miter"/>
    </g>
   </g>
   <g id="line2d_34">
    <path d="M 647.75875 330.073742 
L 647.75875 335.958781 
" clip-path="url(#p2830b0c4b5)" style="fill: none; stroke: #737373; stroke-width: 1.5; stroke-linecap: round"/>
   </g>
   <g id="line2d_35">
    <path d="M 647.75875 131.606435 
L 647.75875 76.774567 
" clip-path="url(#p2830b0c4b5)" style="fill: none; stroke: #737373; stroke-width: 1.5; stroke-linecap: round"/>
   </g>
   <g id="line2d_36">
    <path d="M 622.890107 335.958781 
L 672.627393 335.958781 
" clip-path="url(#p2830b0c4b5)" style="fill: none; stroke: #737373; stroke-width: 1.5; stroke-linecap: round"/>
   </g>
   <g id="line2d_37">
    <path d="M 622.890107 76.774567 
L 672.627393 76.774567 
" clip-path="url(#p2830b0c4b5)" style="fill: none; stroke: #737373; stroke-width: 1.5; stroke-linecap: round"/>
   </g>
   <g id="line2d_38">
    <g clip-path="url(#p2830b0c4b5)">
     <use xlink:href="#m47a6b9965e" x="647.75875" y="786.132072" style="fill: #737373; stroke: #737373; stroke-linejoin: miter"/>
    </g>
   </g>
   <g id="line2d_39">
    <path d="M 471.14063 172.70246 
L 570.615203 172.70246 
" clip-path="url(#p2830b0c4b5)" style="fill: none; stroke: #737373; stroke-width: 1.5; stroke-linecap: round"/>
   </g>
   <g id="line2d_40">
    <path d="M 598.021463 174.184896 
L 697.496037 174.184896 
" clip-path="url(#p2830b0c4b5)" style="fill: none; stroke: #737373; stroke-width: 1.5; stroke-linecap: round"/>
   </g>
   <g id="patch_15">
    <path d="M 457.4375 360.749632 
L 457.4375 28.96 
" style="fill: none; stroke: #cccccc; stroke-width: 1.25; stroke-linejoin: miter; stroke-linecap: square"/>
   </g>
   <g id="patch_16">
    <path d="M 711.199167 360.749632 
L 711.199167 28.96 
" style="fill: none; stroke: #cccccc; stroke-width: 1.25; stroke-linejoin: miter; stroke-linecap: square"/>
   </g>
   <g id="patch_17">
    <path d="M 457.4375 360.749632 
L 711.199167 360.749632 
" style="fill: none; stroke: #cccccc; stroke-width: 1.25; stroke-linejoin: miter; stroke-linecap: square"/>
   </g>
   <g id="patch_18">
    <path d="M 457.4375 28.96 
L 711.199167 28.96 
" style="fill: none; stroke: #cccccc; stroke-width: 1.25; stroke-linejoin: miter; stroke-linecap: square"/>
   </g>
   <g id="PathCollection_6">
    <defs>
     <path id="C3_0_5ce5661c8f" d="M 0 2 
C 0.530406 2 1.03916 1.789267 1.414214 1.414214 
C 1.789267 1.03916 2 0.530406 2 -0 
C 2 -0.530406 1.789267 -1.03916 1.414214 -1.414214 
C 1.03916 -1.789267 0.530406 -2 0 -2 
C -0.530406 -2 -1.03916 -1.789267 -1.414214 -1.414214 
C -1.789267 -1.03916 -2 -0.530406 -2 0 
C -2 0.530406 -1.789267 1.03916 -1.414214 1.414214 
C -1.03916 1.789267 -0.530406 2 0 2 
z
"/>
    </defs>
    <g clip-path="url(#p2830b0c4b5)">
     <use xlink:href="#C3_0_5ce5661c8f" x="529.685984" y="168.284366" style="fill: #262626"/>
    </g>
    <g clip-path="url(#p2830b0c4b5)">
     <use xlink:href="#C3_0_5ce5661c8f" x="528.823898" y="118.142829" style="fill: #262626"/>
    </g>
    <g clip-path="url(#p2830b0c4b5)">
     <use xlink:href="#C3_0_5ce5661c8f" x="510.885172" y="177.120553" style="fill: #262626"/>
    </g>
    <g clip-path="url(#p2830b0c4b5)">
     <use xlink:href="#C3_0_5ce5661c8f" x="526.34736" y="783.760449" style="fill: #262626"/>
    </g>
    <g clip-path="url(#p2830b0c4b5)">
     <use xlink:href="#C3_0_5ce5661c8f" x="521.656137" y="161.901333" style="fill: #262626"/>
    </g>
    <g clip-path="url(#p2830b0c4b5)">
     <use xlink:href="#C3_0_5ce5661c8f" x="525.277051" y="75.224461" style="fill: #262626"/>
    </g>
    <g clip-path="url(#p2830b0c4b5)">
     <use xlink:href="#C3_0_5ce5661c8f" x="516.068837" y="334.451758" style="fill: #262626"/>
    </g>
    <g clip-path="url(#p2830b0c4b5)">
     <use xlink:href="#C3_0_5ce5661c8f" x="512.347613" y="334.365276" style="fill: #262626"/>
    </g>
    <g clip-path="url(#p2830b0c4b5)">
     <use xlink:href="#C3_0_5ce5661c8f" x="525.713391" y="119.729546" style="fill: #262626"/>
    </g>
    <g clip-path="url(#p2830b0c4b5)">
     <use xlink:href="#C3_0_5ce5661c8f" x="510.65241" y="310.814135" style="fill: #262626"/>
    </g>
   </g>
   <g id="PathCollection_7">
    <defs>
     <path id="C4_0_0c475611e5" d="M 0 2 
C 0.530406 2 1.03916 1.789267 1.414214 1.414214 
C 1.789267 1.03916 2 0.530406 2 -0 
C 2 -0.530406 1.789267 -1.03916 1.414214 -1.414214 
C 1.03916 -1.789267 0.530406 -2 0 -2 
C -0.530406 -2 -1.03916 -1.789267 -1.414214 -1.414214 
C -1.789267 -1.03916 -2 -0.530406 -2 0 
C -2 0.530406 -1.789267 1.03916 -1.414214 1.414214 
C -1.03916 1.789267 -0.530406 2 0 2 
z
"/>
    </defs>
    <g clip-path="url(#p2830b0c4b5)">
     <use xlink:href="#C4_0_0c475611e5" x="638.895084" y="170.104113" style="fill: #262626"/>
    </g>
    <g clip-path="url(#p2830b0c4b5)">
     <use xlink:href="#C4_0_0c475611e5" x="659.282944" y="119.756054" style="fill: #262626"/>
    </g>
    <g clip-path="url(#p2830b0c4b5)">
     <use xlink:href="#C4_0_0c475611e5" x="638.227478" y="178.265678" style="fill: #262626"/>
    </g>
    <g clip-path="url(#p2830b0c4b5)">
     <use xlink:href="#C4_0_0c475611e5" x="655.88305" y="786.132072" style="fill: #262626"/>
    </g>
    <g clip-path="url(#p2830b0c4b5)">
     <use xlink:href="#C4_0_0c475611e5" x="658.530543" y="162.875919" style="fill: #262626"/>
    </g>
    <g clip-path="url(#p2830b0c4b5)">
     <use xlink:href="#C4_0_0c475611e5" x="655.858399" y="76.774567" style="fill: #262626"/>
    </g>
    <g clip-path="url(#p2830b0c4b5)">
     <use xlink:href="#C4_0_0c475611e5" x="656.796725" y="335.958781" style="fill: #262626"/>
    </g>
    <g clip-path="url(#p2830b0c4b5)">
     <use xlink:href="#C4_0_0c475611e5" x="645.268283" y="335.929953" style="fill: #262626"/>
    </g>
    <g clip-path="url(#p2830b0c4b5)">
     <use xlink:href="#C4_0_0c475611e5" x="636.056054" y="121.183274" style="fill: #262626"/>
    </g>
    <g clip-path="url(#p2830b0c4b5)">
     <use xlink:href="#C4_0_0c475611e5" x="653.751619" y="312.505111" style="fill: #262626"/>
    </g>
   </g>
   <g id="text_13">
    <!-- Method 2 -->
    <g style="fill: #262626" transform="translate(556.090208 22.96)scale(0.12 -0.12)">
     <use xlink:href="#DejaVuSans-4d"/>
     <use xlink:href="#DejaVuSans-65" x="86.279297"/>
     <use xlink:href="#DejaVuSans-74" x="147.802734"/>
     <use xlink:href="#DejaVuSans-68" x="187.011719"/>
     <use xlink:href="#DejaVuSans-6f" x="250.390625"/>
     <use xlink:href="#DejaVuSans-64" x="311.572266"/>
     <use xlink:href="#DejaVuSans-20" x="375.048828"/>
     <use xlink:href="#DejaVuSans-32" x="406.835938"/>
    </g>
   </g>
  </g>
  <g id="axes_3">
   <g id="patch_19">
    <path d="M 724.159167 360.749632 
L 851.04 360.749632 
L 851.04 28.96 
L 724.159167 28.96 
z
" style="fill: #ffffff"/>
   </g>
   <g id="matplotlib.axis_5">
    <g id="xtick_6">
     <g id="text_14">
      <!-- index-hprc -->
      <g style="fill: #262626" transform="translate(769.118519 417.414538)rotate(-45)scale(0.11 -0.11)">
       <use xlink:href="#DejaVuSans-69"/>
       <use xlink:href="#DejaVuSans-6e" x="27.783203"/>
       <use xlink:href="#DejaVuSans-64" x="91.162109"/>
       <use xlink:href="#DejaVuSans-65" x="154.638672"/>
       <use xlink:href="#DejaVuSans-78" x="214.412109"/>
       <use xlink:href="#DejaVuSans-2d" x="273.591797"/>
       <use xlink:href="#DejaVuSans-68" x="309.675781"/>
       <use xlink:href="#DejaVuSans-70" x="373.054688"/>
       <use xlink:href="#DejaVuSans-72" x="436.53125"/>
       <use xlink:href="#DejaVuSans-63" x="475.394531"/>
      </g>
     </g>
    </g>
   </g>
   <g id="matplotlib.axis_6">
    <g id="ytick_11">
     <g id="line2d_41">
      <path d="M 724.159167 344.16015 
L 851.04 344.16015 
" clip-path="url(#p13c4349bcf)" style="fill: none; stroke: #cccccc; stroke-linecap: round"/>
     </g>
    </g>
    <g id="ytick_12">
     <g id="line2d_42">
      <path d="M 724.159167 277.802224 
L 851.04 277.802224 
" clip-path="url(#p13c4349bcf)" style="fill: none; stroke: #cccccc; stroke-linecap: round"/>
     </g>
    </g>
    <g id="ytick_13">
     <g id="line2d_43">
      <path d="M 724.159167 211.444298 
L 851.04 211.444298 
" clip-path="url(#p13c4349bcf)" style="fill: none; stroke: #cccccc; stroke-linecap: round"/>
     </g>
    </g>
    <g id="ytick_14">
     <g id="line2d_44">
      <path d="M 724.159167 145.086371 
L 851.04 145.086371 
" clip-path="url(#p13c4349bcf)" style="fill: none; stroke: #cccccc; stroke-linecap: round"/>
     </g>
    </g>
    <g id="ytick_15">
     <g id="line2d_45">
      <path d="M 724.159167 78.728445 
L 851.04 78.728445 
" clip-path="url(#p13c4349bcf)" style="fill: none; stroke: #cccccc; stroke-linecap: round"/>
     </g>
    </g>
   </g>
   <g id="patch_20">
    <path d="M 737.862297 288.093264 
L 837.33687 288.093264 
L 837.33687 102.091868 
L 737.862297 102.091868 
L 737.862297 288.093264 
z
" clip-path="url(#p13c4349bcf)" style="fill: #e98e83; stroke: #6d6d6d; stroke-width: 1.5; stroke-linejoin: miter"/>
   </g>
   <g id="patch_21">
    <path d="M 787.599583 32793.18617 
L 787.599583 32793.18617 
L 787.599583 32793.18617 
L 787.599583 32793.18617 
z
" clip-path="url(#p13c4349bcf)" style="fill: #e98e83; stroke: #6d6d6d; stroke-width: 0.75; stroke-linejoin: miter"/>
   </g>
   <g id="PathCollection_8"/>
   <g id="line2d_46">
    <path d="M 787.599583 288.093264 
L 787.599583 305.048775 
" clip-path="url(#p13c4349bcf)" style="fill: none; stroke: #6d6d6d; stroke-width: 1.5; stroke-linecap: round"/>
   </g>
   <g id="line2d_47">
    <path d="M 787.599583 102.091868 
L 787.599583 42.114199 
" clip-path="url(#p13c4349bcf)" style="fill: none; stroke: #6d6d6d; stroke-width: 1.5; stroke-linecap: round"/>
   </g>
   <g id="line2d_48">
    <path d="M 762.73094 305.048775 
L 812.468227 305.048775 
" clip-path="url(#p13c4349bcf)" style="fill: none; stroke: #6d6d6d; stroke-width: 1.5; stroke-linecap: round"/>
   </g>
   <g id="line2d_49">
    <path d="M 762.73094 42.114199 
L 812.468227 42.114199 
" clip-path="url(#p13c4349bcf)" style="fill: none; stroke: #6d6d6d; stroke-width: 1.5; stroke-linecap: round"/>
   </g>
   <g id="line2d_50">
    <defs>
     <path id="m5c674d0b01" d="M -0 3.535534 
L 2.12132 0 
L -0 -3.535534 
L -2.12132 -0 
z
" style="stroke: #6d6d6d; stroke-linejoin: miter"/>
    </defs>
    <g clip-path="url(#p13c4349bcf)">
     <use xlink:href="#m5c674d0b01" x="787.599583" y="755.022915" style="fill: #6d6d6d; stroke: #6d6d6d; stroke-linejoin: miter"/>
    </g>
   </g>
   <g id="line2d_51">
    <path d="M 737.862297 146.108051 
L 837.33687 146.108051 
" clip-path="url(#p13c4349bcf)" style="fill: none; stroke: #6d6d6d; stroke-width: 1.5; stroke-linecap: round"/>
   </g>
   <g id="patch_22">
    <path d="M 724.159167 360.749632 
L 724.159167 28.96 
" style="fill: none; stroke: #cccccc; stroke-width: 1.25; stroke-linejoin: miter; stroke-linecap: square"/>
   </g>
   <g id="patch_23">
    <path d="M 851.04 360.749632 
L 851.04 28.96 
" style="fill: none; stroke: #cccccc; stroke-width: 1.25; stroke-linejoin: miter; stroke-linecap: square"/>
   </g>
   <g id="patch_24">
    <path d="M 724.159167 360.749632 
L 851.04 360.749632 
" style="fill: none; stroke: #cccccc; stroke-width: 1.25; stroke-linejoin: miter; stroke-linecap: square"/>
   </g>
   <g id="patch_25">
    <path d="M 724.159167 28.96 
L 851.04 28.96 
" style="fill: none; stroke: #cccccc; stroke-width: 1.25; stroke-linejoin: miter; stroke-linecap: square"/>
   </g>
   <g id="PathCollection_9">
    <defs>
     <path id="C5_0_9290651faa" d="M 0 2 
C 0.530406 2 1.03916 1.789267 1.414214 1.414214 
C 1.789267 1.03916 2 0.530406 2 -0 
C 2 -0.530406 1.789267 -1.03916 1.414214 -1.414214 
C 1.03916 -1.789267 0.530406 -2 0 -2 
C -0.530406 -2 -1.03916 -1.789267 -1.414214 -1.414214 
C -1.789267 -1.03916 -2 -0.530406 -2 0 
C -2 0.530406 -1.789267 1.03916 -1.414214 1.414214 
C -1.03916 1.789267 -0.530406 2 0 2 
z
"/>
    </defs>
    <g clip-path="url(#p13c4349bcf)">
     <use xlink:href="#C5_0_9290651faa" x="782.609941" y="143.425938" style="fill: #262626"/>
    </g>
    <g clip-path="url(#p13c4349bcf)">
     <use xlink:href="#C5_0_9290651faa" x="791.641433" y="92.589947" style="fill: #262626"/>
    </g>
    <g clip-path="url(#p13c4349bcf)">
     <use xlink:href="#C5_0_9290651faa" x="785.95602" y="148.790163" style="fill: #262626"/>
    </g>
    <g clip-path="url(#p13c4349bcf)">
     <use xlink:href="#C5_0_9290651faa" x="794.410706" y="755.022915" style="fill: #262626"/>
    </g>
    <g clip-path="url(#p13c4349bcf)">
     <use xlink:href="#C5_0_9290651faa" x="779.619384" y="130.597629" style="fill: #262626"/>
    </g>
    <g clip-path="url(#p13c4349bcf)">
     <use xlink:href="#C5_0_9290651faa" x="790.449086" y="42.114199" style="fill: #262626"/>
    </g>
    <g clip-path="url(#p13c4349bcf)">
     <use xlink:href="#C5_0_9290651faa" x="780.249657" y="305.048775" style="fill: #262626"/>
    </g>
    <g clip-path="url(#p13c4349bcf)">
     <use xlink:href="#C5_0_9290651faa" x="789.007774" y="290.797131" style="fill: #262626"/>
    </g>
    <g clip-path="url(#p13c4349bcf)">
     <use xlink:href="#C5_0_9290651faa" x="780.232832" y="89.331455" style="fill: #262626"/>
    </g>
    <g clip-path="url(#p13c4349bcf)">
     <use xlink:href="#C5_0_9290651faa" x="776.17259" y="279.98166" style="fill: #262626"/>
    </g>
   </g>
   <g id="text_15">
    <!-- Method 3 -->
    <g style="fill: #262626" transform="translate(759.371458 22.96)scale(0.12 -0.12)">
     <use xlink:href="#DejaVuSans-4d"/>
     <use xlink:href="#DejaVuSans-65" x="86.279297"/>
     <use xlink:href="#DejaVuSans-74" x="147.802734"/>
     <use xlink:href="#DejaVuSans-68" x="187.011719"/>
     <use xlink:href="#DejaVuSans-6f" x="250.390625"/>
     <use xlink:href="#DejaVuSans-64" x="311.572266"/>
     <use xlink:href="#DejaVuSans-20" x="375.048828"/>
     <use xlink:href="#DejaVuSans-33" x="406.835938"/>
    </g>
   </g>
  </g>
 </g>
 <defs>
  <clipPath id="p4ec88fc555">
   <rect x="63.835" y="28.96" width="380.6425" height="331.789632"/>
  </clipPath>
  <clipPath id="p2830b0c4b5">
   <rect x="457.4375" y="28.96" width="253.761667" height="331.789632"/>
  </clipPath>
  <clipPath id="p13c4349bcf">
   <rect x="724.159167" y="28.96" width="126.880833" height="331.789632"/>
  </clipPath>
 </defs>
</svg>
